<svg width="117" height="36" viewBox="0 0 117 36" fill="none" xmlns="http://www.w3.org/2000/svg">
<path d="M50.4561 10.771H53.2383V24.0004H50.4561V18.5621H44.7896V24.0004H42.0073V10.771H44.7896V16.1726H50.4561V10.771Z" fill="white"/>
<path d="M60.7504 24.1835C59.7365 24.1835 58.8369 23.9912 58.0516 23.6067C57.2664 23.2222 56.6482 22.6576 56.1968 21.913C55.7517 21.1683 55.5291 20.2925 55.5291 19.2854C55.5291 17.7778 56.0113 16.5876 56.9758 15.7148C57.9404 14.842 59.1986 14.4056 60.7504 14.4056C62.3085 14.4056 63.5698 14.842 64.5343 15.7148C65.4988 16.5876 65.9811 17.7778 65.9811 19.2854C65.9811 20.7991 65.4988 21.9954 64.5343 22.8743C63.5698 23.7471 62.3085 24.1835 60.7504 24.1835ZM60.7226 22.0869C61.5016 22.0869 62.1292 21.8306 62.6053 21.3179C63.0875 20.8052 63.3287 20.1277 63.3287 19.2854C63.3287 18.4431 63.0875 17.7656 62.6053 17.2529C62.1292 16.7402 61.5016 16.4839 60.7226 16.4839C59.9745 16.4839 59.3624 16.7433 58.8863 17.2621C58.4164 17.7748 58.1815 18.4492 58.1815 19.2854C58.1815 20.1216 58.4164 20.7991 58.8863 21.3179C59.3624 21.8306 59.9745 22.0869 60.7226 22.0869Z" fill="white"/>
<path d="M74.2907 14.5887H76.9617V24.0004H74.4298L74.3649 22.8651C73.6601 23.744 72.6492 24.1835 71.3323 24.1835C70.1884 24.1835 69.3105 23.9027 68.6984 23.3412C68.0863 22.7736 67.7803 21.9679 67.7803 20.9242V14.5887H70.4605V20.3566C70.4605 20.9425 70.6182 21.3728 70.9335 21.6475C71.255 21.9221 71.6692 22.0594 72.1762 22.0594C72.7945 22.0594 73.2984 21.8824 73.6879 21.5284C74.0836 21.1683 74.2845 20.5854 74.2907 19.7798V14.5887Z" fill="white"/>
<path d="M86.6903 14.5887L82.4984 21.9679H86.5605V24.0004H78.7052L82.8786 16.6212H79.0298V14.5887H86.6903Z" fill="white"/>
<path d="M89.8899 13.1788C89.4633 13.1788 89.0985 13.0323 88.7955 12.7394C88.4926 12.4403 88.3411 12.0802 88.3411 11.6591C88.3411 11.244 88.4926 10.89 88.7955 10.597C89.1047 10.298 89.4695 10.1484 89.8899 10.1484C90.3041 10.1484 90.6627 10.298 90.9657 10.597C91.2686 10.89 91.4201 11.244 91.4201 11.6591C91.4201 12.0802 91.2686 12.4403 90.9657 12.7394C90.6627 13.0323 90.3041 13.1788 89.8899 13.1788ZM88.5266 24.0004V14.5887H91.2161V24.0004H88.5266Z" fill="white"/>
<path d="M99.6092 14.4056C100.753 14.4056 101.631 14.6895 102.243 15.2571C102.855 15.8186 103.161 16.6212 103.161 17.6649V24.0004H100.481V18.2325C100.481 17.6405 100.32 17.2072 99.9987 16.9325C99.6834 16.6578 99.2753 16.5205 98.7745 16.5205C98.484 16.5205 98.2181 16.5602 97.977 16.6395C97.7358 16.7189 97.5133 16.844 97.3092 17.0149C97.1052 17.1797 96.9444 17.4147 96.827 17.7198C96.7157 18.025 96.6569 18.3882 96.6508 18.8093V24.0004H93.9798V14.5887H96.6508V15.6324C97.3556 14.8146 98.3418 14.4056 99.6092 14.4056Z" fill="white"/>
<path d="M112.324 14.5887H114.865V23.2954C114.865 24.1926 114.745 24.9739 114.504 25.6392C114.269 26.3044 113.925 26.8385 113.474 27.2413C113.023 27.6503 112.494 27.9524 111.888 28.1477C111.282 28.343 110.59 28.4407 109.811 28.4407C107.294 28.4407 105.656 27.4672 104.896 25.5201L107.112 24.5863C107.384 25.2028 107.727 25.6575 108.141 25.9504C108.556 26.2434 109.078 26.3899 109.709 26.3899C111.36 26.3899 112.185 25.4225 112.185 23.4877V22.389C111.901 22.7736 111.499 23.0848 110.979 23.3229C110.466 23.5548 109.904 23.6708 109.291 23.6708C108.704 23.6708 108.145 23.5609 107.613 23.3412C107.087 23.1154 106.627 22.8041 106.231 22.4073C105.835 22.0045 105.52 21.5101 105.285 20.9242C105.056 20.3383 104.942 19.7035 104.942 19.0199C104.942 18.3302 105.056 17.6954 105.285 17.1156C105.52 16.5297 105.835 16.0414 106.231 15.6508C106.633 15.2601 107.097 14.955 107.622 14.7352C108.154 14.5155 108.716 14.4056 109.31 14.4056C109.965 14.4056 110.553 14.5369 111.072 14.7993C111.598 15.0557 111.993 15.4005 112.259 15.8339L112.324 14.5887ZM108.225 20.8143C108.701 21.2965 109.285 21.5376 109.978 21.5376C110.67 21.5376 111.254 21.2935 111.731 20.8052C112.207 20.3169 112.445 19.7218 112.445 19.0199C112.445 18.3119 112.207 17.7137 111.731 17.2255C111.261 16.7372 110.676 16.493 109.978 16.493C109.273 16.493 108.686 16.7341 108.216 17.2163C107.752 17.6924 107.52 18.2936 107.52 19.0199C107.52 19.734 107.755 20.3322 108.225 20.8143Z" fill="white"/>
<path d="M7.32205 17.7038V10.4231L15.1946 5.96333C17.8217 7.44993 20.443 8.93653 23.0672 10.4231V21.6982H8.94887H1.63392C1.36661 21.1001 1.09356 20.5106 0.872243 19.8984C-0.036018 17.385 -0.234341 14.6827 0.274401 12.0846C0.826255 9.25247 2.22026 6.55289 4.45068 4.36671C7.41977 1.45557 11.3086 0 15.1946 0C19.0863 0 22.9752 1.45557 25.9385 4.36671C28.9047 7.28068 30.3879 11.0973 30.3879 14.9111C30.3879 18.7278 28.9047 22.5473 25.9385 25.4556L15.1946 36L4.45068 25.4584C3.99655 25.0127 3.56541 24.5331 3.17164 24.0339H6.35918L15.1946 32.708L24.2628 23.8082C26.7634 21.354 28.0166 18.1298 28.0166 14.9111C28.0166 11.6925 26.7634 8.47109 24.2628 6.0141C21.7594 3.5543 18.4741 2.32722 15.1946 2.32722C11.9151 2.32722 8.6327 3.55712 6.12924 6.01128C4.24373 7.86178 3.07104 10.1354 2.60541 12.5162C2.15703 14.7955 2.35823 17.1678 3.20038 19.3625H20.693V11.7602C18.8564 10.7193 17.0255 9.68124 15.1946 8.64316L9.69905 11.7602V17.7094H7.32205V17.7038Z" fill="white"/>
</svg>
